<svg width="602.2074951171875px" height="125.612451171875px" xmlns="http://www.w3.org/2000/svg" viewBox="-51.10374755859374 12.193774414062503 602.2074951171875 125.612451171875" style="background: rgba(0, 0, 0, 0);" preserveAspectRatio="xMidYMid"><defs><filter id="editing-hole" x="-100%" y="-100%" width="300%" height="300%"><feFlood flood-color="#000000" result="black"></feFlood><feMorphology operator="dilate" radius="2" in="SourceGraphic" result="erode"></feMorphology><feGaussianBlur in="erode" stdDeviation="4" result="blur"></feGaussianBlur><feOffset in="blur" dx="2" dy="2" result="offset"></feOffset><feComposite operator="atop" in="offset" in2="black" result="merge"></feComposite><feComposite operator="in" in="merge" in2="SourceGraphic" result="inner-shadow"></feComposite></filter></defs><g filter="url(#editing-hole)"><g transform="translate(34.13000249862671, 97.65499877929688)"><path d="M5.95 0L5.95 0Q5.31 0 5.31-0.64L5.31-0.64L5.31-44.16L5.31-44.16Q5.31-44.80 5.95-44.80L5.95-44.80L18.43-44.80L18.43-44.80Q24.13-44.80 27.42-41.54L27.42-41.54L27.42-41.54Q30.72-38.27 30.72-32.64L30.72-32.64L30.72-12.16L30.72-12.16Q30.72-6.53 27.42-3.26L27.42-3.26L27.42-3.26Q24.13 0 18.43 0L18.43 0L5.95 0ZM9.86-4.22L9.86-4.22Q9.86-3.97 10.11-3.97L10.11-3.97L18.50-3.97L18.50-3.97Q22.02-4.03 24.06-6.30L24.06-6.30L24.06-6.30Q26.11-8.58 26.18-12.54L26.18-12.54L26.18-32.26L26.18-32.26Q26.18-36.22 24.13-38.53L24.13-38.53L24.13-38.53Q22.08-40.83 18.50-40.83L18.50-40.83L10.11-40.83L10.11-40.83Q9.86-40.83 9.86-40.58L9.86-40.58L9.86-4.22ZM56.38-31.74L56.38-31.74Q56.38-32.38 57.02-32.38L57.02-32.38L60.29-32.38L60.29-32.38Q60.93-32.38 60.93-31.74L60.93-31.74L60.93-0.64L60.93-0.64Q60.93 0 60.29 0L60.29 0L57.02 0L57.02 0Q56.38 0 56.38-0.64L56.38-0.64L56.38-3.14L56.38-3.14Q56.38-3.33 56.29-3.33L56.29-3.33L56.29-3.33Q56.19-3.33 56.06-3.20L56.06-3.20L56.06-3.20Q53.82 0.45 48.64 0.45L48.64 0.45L48.64 0.45Q44.29 0.45 41.54-2.11L41.54-2.11L41.54-2.11Q38.78-4.67 38.78-9.54L38.78-9.54L38.78-31.74L38.78-31.74Q38.78-32.38 39.42-32.38L39.42-32.38L42.69-32.38L42.69-32.38Q43.33-32.38 43.33-31.74L43.33-31.74L43.33-10.69L43.33-10.69Q43.33-7.30 44.99-5.41L44.99-5.41L44.99-5.41Q46.66-3.52 49.66-3.52L49.66-3.52L49.66-3.52Q52.80-3.52 54.59-5.54L54.59-5.54L54.59-5.54Q56.38-7.55 56.38-10.94L56.38-10.94L56.38-31.74ZM92.29-23.55L92.29-23.55Q92.74-20.93 92.74-16.13L92.74-16.13L92.74-16.13Q92.74-11.39 92.22-8.70L92.22-8.70L92.22-8.70Q91.33-4.22 88.80-1.86L88.80-1.86L88.80-1.86Q86.27 0.51 82.30 0.51L82.30 0.51L82.30 0.51Q77.25 0.51 74.82-3.20L74.82-3.20L74.82-3.20Q74.75-3.39 74.62-3.36L74.62-3.36L74.62-3.36Q74.50-3.33 74.50-3.14L74.50-3.14L74.50-0.64L74.50-0.64Q74.50 0 73.86 0L73.86 0L70.59 0L70.59 0Q69.95 0 69.95-0.64L69.95-0.64L69.95-44.16L69.95-44.16Q69.95-44.80 70.59-44.80L70.59-44.80L73.86-44.80L73.86-44.80Q74.50-44.80 74.50-44.16L74.50-44.16L74.50-29.25L74.50-29.25Q74.50-29.06 74.59-29.06L74.59-29.06L74.59-29.06Q74.69-29.06 74.82-29.18L74.82-29.18L74.82-29.18Q76.99-32.90 82.11-32.90L82.11-32.90L82.11-32.90Q86.34-32.90 88.93-30.46L88.93-30.46L88.93-30.46Q91.52-28.03 92.29-23.55L92.29-23.55ZM87.62-9.09L87.62-9.09Q88.19-11.58 88.19-16.19L88.19-16.19L88.19-16.19Q88.19-20.80 87.49-23.55L87.49-23.55L87.49-23.55Q86.91-25.98 85.25-27.46L85.25-27.46L85.25-27.46Q83.58-28.93 81.09-28.93L81.09-28.93L81.09-28.93Q78.59-28.93 77.06-27.46L77.06-27.46L77.06-27.46Q75.52-25.98 75.07-23.42L75.07-23.42L75.07-23.42Q74.50-20.93 74.50-16.19L74.50-16.19L74.50-16.19Q74.50-11.58 75.01-9.02L75.01-9.02L75.01-9.02Q75.52-6.46 77.09-4.96L77.09-4.96L77.09-4.96Q78.66-3.46 81.15-3.46L81.15-3.46L81.15-3.46Q83.78-3.46 85.44-4.96L85.44-4.96L85.44-4.96Q87.10-6.46 87.62-9.09L87.62-9.09ZM111.04-32.90L111.04-32.90Q116.16-32.90 119.10-29.95L119.10-29.95L119.10-29.95Q122.05-27.01 122.05-22.14L122.05-22.14L122.05-0.64L122.05-0.64Q122.05 0 121.41 0L121.41 0L118.14 0L118.14 0Q117.50 0 117.50-0.64L117.50-0.64L117.50-2.94L117.50-2.94Q117.50-3.07 117.41-3.14L117.41-3.14L117.41-3.14Q117.31-3.20 117.18-3.07L117.18-3.07L117.18-3.07Q115.71-1.28 113.50-0.38L113.50-0.38L113.50-0.38Q111.30 0.51 108.61 0.51L108.61 0.51L108.61 0.51Q104.58 0.51 101.76-1.66L101.76-1.66L101.76-1.66Q98.94-3.84 98.94-8.77L98.94-8.77L98.94-8.77Q98.94-13.89 102.27-16.54L102.27-16.54L102.27-16.54Q105.60-19.20 111.30-19.20L111.30-19.20L117.25-19.20L117.25-19.20Q117.50-19.20 117.50-19.46L117.50-19.46L117.50-21.89L117.50-21.89Q117.50-25.15 115.84-27.04L115.84-27.04L115.84-27.04Q114.18-28.93 111.04-28.93L111.04-28.93L111.04-28.93Q108.54-28.93 106.85-27.68L106.85-27.68L106.85-27.68Q105.15-26.43 104.90-24.38L104.90-24.38L104.90-24.38Q104.83-23.81 104.19-23.81L104.19-23.81L100.67-24L100.67-24Q100.35-24 100.19-24.19L100.19-24.19L100.19-24.19Q100.03-24.38 100.10-24.64L100.10-24.64L100.10-24.64Q100.54-28.35 103.55-30.62L103.55-30.62L103.55-30.62Q106.56-32.90 111.04-32.90L111.04-32.90ZM109.63-3.46L109.63-3.46Q112.83-3.46 115.17-5.22L115.17-5.22L115.17-5.22Q117.50-6.98 117.50-10.11L117.50-10.11L117.50-15.30L117.50-15.30Q117.50-15.55 117.25-15.55L117.25-15.55L111.55-15.55L111.55-15.55Q107.97-15.55 105.76-13.86L105.76-13.86L105.76-13.86Q103.55-12.16 103.55-9.02L103.55-9.02L103.55-9.02Q103.55-6.21 105.25-4.83L105.25-4.83L105.25-4.83Q106.94-3.46 109.63-3.46L109.63-3.46ZM132.93-38.21L132.93-38.21Q131.46-38.21 130.53-39.14L130.53-39.14L130.53-39.14Q129.60-40.06 129.60-41.54L129.60-41.54L129.60-41.54Q129.60-42.94 130.53-43.87L130.53-43.87L130.53-43.87Q131.46-44.80 132.93-44.80L132.93-44.80L132.93-44.80Q134.40-44.80 135.30-43.90L135.30-43.90L135.30-43.90Q136.19-43.01 136.19-41.54L136.19-41.54L136.19-41.54Q136.19-40.06 135.30-39.14L135.30-39.14L135.30-39.14Q134.40-38.21 132.93-38.21L132.93-38.21ZM131.33 0L131.33 0Q130.69 0 130.69-0.64L130.69-0.64L130.69-31.74L130.69-31.74Q130.69-32.38 131.33-32.38L131.33-32.38L134.59-32.38L134.59-32.38Q135.23-32.38 135.23-31.74L135.23-31.74L135.23-0.64L135.23-0.64Q135.23 0 134.59 0L134.59 0L131.33 0ZM158.85 0L158.85 0Q158.21 0 158.21-0.64L158.21-0.64L158.21-44.16L158.21-44.16Q158.21-44.80 158.85-44.80L158.85-44.80L162.11-44.80L162.11-44.80Q162.75-44.80 162.75-44.16L162.75-44.16L162.75-4.22L162.75-4.22Q162.75-3.97 163.01-3.97L163.01-3.97L181.63-3.97L181.63-3.97Q182.27-3.97 182.27-3.33L182.27-3.33L182.27-0.64L182.27-0.64Q182.27 0 181.63 0L181.63 0L158.85 0ZM198.53-32.90L198.53-32.90Q203.65-32.90 206.59-29.95L206.59-29.95L206.59-29.95Q209.54-27.01 209.54-22.14L209.54-22.14L209.54-0.64L209.54-0.64Q209.54 0 208.90 0L208.90 0L205.63 0L205.63 0Q204.99 0 204.99-0.64L204.99-0.64L204.99-2.94L204.99-2.94Q204.99-3.07 204.90-3.14L204.90-3.14L204.90-3.14Q204.80-3.20 204.67-3.07L204.67-3.07L204.67-3.07Q203.20-1.28 200.99-0.38L200.99-0.38L200.99-0.38Q198.78 0.51 196.10 0.51L196.10 0.51L196.10 0.51Q192.06 0.51 189.25-1.66L189.25-1.66L189.25-1.66Q186.43-3.84 186.43-8.77L186.43-8.77L186.43-8.77Q186.43-13.89 189.76-16.54L189.76-16.54L189.76-16.54Q193.09-19.20 198.78-19.20L198.78-19.20L204.74-19.20L204.74-19.20Q204.99-19.20 204.99-19.46L204.99-19.46L204.99-21.89L204.99-21.89Q204.99-25.15 203.33-27.04L203.33-27.04L203.33-27.04Q201.66-28.93 198.53-28.93L198.53-28.93L198.53-28.93Q196.03-28.93 194.34-27.68L194.34-27.68L194.34-27.68Q192.64-26.43 192.38-24.38L192.38-24.38L192.38-24.38Q192.32-23.81 191.68-23.81L191.68-23.81L188.16-24L188.16-24Q187.84-24 187.68-24.19L187.68-24.19L187.68-24.19Q187.52-24.38 187.58-24.64L187.58-24.64L187.58-24.64Q188.03-28.35 191.04-30.62L191.04-30.62L191.04-30.62Q194.05-32.90 198.53-32.90L198.53-32.90ZM197.12-3.46L197.12-3.46Q200.32-3.46 202.66-5.22L202.66-5.22L202.66-5.22Q204.99-6.98 204.99-10.11L204.99-10.11L204.99-15.30L204.99-15.30Q204.99-15.55 204.74-15.55L204.74-15.55L199.04-15.55L199.04-15.55Q195.46-15.55 193.25-13.86L193.25-13.86L193.25-13.86Q191.04-12.16 191.04-9.02L191.04-9.02L191.04-9.02Q191.04-6.21 192.74-4.83L192.74-4.83L192.74-4.83Q194.43-3.46 197.12-3.46L197.12-3.46ZM230.21-32.83L230.21-32.83Q234.69-32.83 237.28-29.98L237.28-29.98L237.28-29.98Q239.87-27.14 239.87-22.21L239.87-22.21L239.87-0.64L239.87-0.64Q239.87 0 239.23 0L239.23 0L235.97 0L235.97 0Q235.33 0 235.33-0.64L235.33-0.64L235.33-21.57L235.33-21.57Q235.33-24.90 233.60-26.88L233.60-26.88L233.60-26.88Q231.87-28.86 228.93-28.86L228.93-28.86L228.93-28.86Q225.92-28.86 224.10-26.85L224.10-26.85L224.10-26.85Q222.27-24.83 222.27-21.44L222.27-21.44L222.27-0.64L222.27-0.64Q222.27 0 221.63 0L221.63 0L218.37 0L218.37 0Q217.73 0 217.73-0.64L217.73-0.64L217.73-31.74L217.73-31.74Q217.73-32.38 218.37-32.38L218.37-32.38L221.63-32.38L221.63-32.38Q222.27-32.38 222.27-31.74L222.27-31.74L222.27-29.38L222.27-29.38Q222.27-29.25 222.37-29.18L222.37-29.18L222.37-29.18Q222.46-29.12 222.59-29.25L222.59-29.25L222.59-29.25Q223.87-31.04 225.82-31.94L225.82-31.94L225.82-31.94Q227.78-32.83 230.21-32.83L230.21-32.83ZM265.86-44.16L265.86-44.16Q265.86-44.80 266.50-44.80L266.50-44.80L269.76-44.80L269.76-44.80Q270.40-44.80 270.40-44.16L270.40-44.16L270.40-0.64L270.40-0.64Q270.40 0 269.76 0L269.76 0L266.50 0L266.50 0Q265.86 0 265.86-0.64L265.86-0.64L265.86-3.14L265.86-3.14Q265.86-3.33 265.73-3.36L265.73-3.36L265.73-3.36Q265.60-3.39 265.54-3.20L265.54-3.20L265.54-3.20Q263.10 0.51 258.05 0.51L258.05 0.51L258.05 0.51Q254.08 0.51 251.55-1.86L251.55-1.86L251.55-1.86Q249.02-4.22 248.13-8.70L248.13-8.70L248.13-8.70Q247.62-11.39 247.62-16.13L247.62-16.13L247.62-16.13Q247.62-20.93 248.06-23.55L248.06-23.55L248.06-23.55Q248.83-28.03 251.42-30.46L251.42-30.46L251.42-30.46Q254.02-32.90 258.24-32.90L258.24-32.90L258.24-32.90Q263.36-32.90 265.54-29.18L265.54-29.18L265.54-29.18Q265.66-29.06 265.76-29.06L265.76-29.06L265.76-29.06Q265.86-29.06 265.86-29.25L265.86-29.25L265.86-44.16ZM265.34-9.02L265.34-9.02Q265.86-11.58 265.86-16.19L265.86-16.19L265.86-16.19Q265.86-20.93 265.28-23.42L265.28-23.42L265.28-23.42Q264.83-25.98 263.30-27.46L263.30-27.46L263.30-27.46Q261.76-28.93 259.26-28.93L259.26-28.93L259.26-28.93Q256.77-28.93 255.10-27.46L255.10-27.46L255.10-27.46Q253.44-25.98 252.86-23.55L252.86-23.55L252.86-23.55Q252.16-20.80 252.16-16.19L252.16-16.19L252.16-16.19Q252.16-11.58 252.74-9.09L252.74-9.09L252.74-9.09Q253.25-6.46 254.91-4.96L254.91-4.96L254.91-4.96Q256.58-3.46 259.20-3.46L259.20-3.46L259.20-3.46Q261.70-3.46 263.26-4.96L263.26-4.96L263.26-4.96Q264.83-6.46 265.34-9.02L265.34-9.02ZM308.80-32.83L308.80-32.83Q313.09-32.83 315.55-29.98L315.55-29.98L315.55-29.98Q318.02-27.14 318.02-22.14L318.02-22.14L318.02-0.64L318.02-0.64Q318.02 0 317.38 0L317.38 0L314.18 0L314.18 0Q313.54 0 313.54-0.64L313.54-0.64L313.54-21.50L313.54-21.50Q313.54-24.90 311.84-26.88L311.84-26.88L311.84-26.88Q310.14-28.86 307.39-28.86L307.39-28.86L307.39-28.86Q304.51-28.86 302.75-26.91L302.75-26.91L302.75-26.91Q300.99-24.96 300.99-21.63L300.99-21.63L300.99-0.64L300.99-0.64Q300.99 0 300.35 0L300.35 0L297.09 0L297.09 0Q296.45 0 296.45-0.64L296.45-0.64L296.45-21.50L296.45-21.50Q296.45-24.90 294.75-26.88L294.75-26.88L294.75-26.88Q293.06-28.86 290.30-28.86L290.30-28.86L290.30-28.86Q287.42-28.86 285.70-26.91L285.70-26.91L285.70-26.91Q283.97-24.96 283.97-21.63L283.97-21.63L283.97-0.64L283.97-0.64Q283.97 0 283.33 0L283.33 0L280.06 0L280.06 0Q279.42 0 279.42-0.64L279.42-0.64L279.42-31.74L279.42-31.74Q279.42-32.38 280.06-32.38L280.06-32.38L283.33-32.38L283.33-32.38Q283.97-32.38 283.97-31.74L283.97-31.74L283.97-29.50L283.97-29.50Q283.97-29.38 284.06-29.34L284.06-29.34L284.06-29.34Q284.16-29.31 284.29-29.44L284.29-29.44L284.29-29.44Q285.57-31.17 287.55-32L287.55-32L287.55-32Q289.54-32.83 291.78-32.83L291.78-32.83L291.78-32.83Q294.59-32.83 296.70-31.55L296.70-31.55L296.70-31.55Q298.82-30.27 299.90-27.97L299.90-27.97L299.90-27.97Q300.03-27.65 300.22-27.97L300.22-27.97L300.22-27.97Q301.50-30.46 303.78-31.65L303.78-31.65L303.78-31.65Q306.05-32.83 308.80-32.83L308.80-32.83ZM336.90-32.90L336.90-32.90Q342.02-32.90 344.96-29.95L344.96-29.95L344.96-29.95Q347.90-27.01 347.90-22.14L347.90-22.14L347.90-0.64L347.90-0.64Q347.90 0 347.26 0L347.26 0L344 0L344 0Q343.36 0 343.36-0.64L343.36-0.64L343.36-2.94L343.36-2.94Q343.36-3.07 343.26-3.14L343.26-3.14L343.26-3.14Q343.17-3.20 343.04-3.07L343.04-3.07L343.04-3.07Q341.57-1.28 339.36-0.38L339.36-0.38L339.36-0.38Q337.15 0.51 334.46 0.51L334.46 0.51L334.46 0.51Q330.43 0.51 327.62-1.66L327.62-1.66L327.62-1.66Q324.80-3.84 324.80-8.77L324.80-8.77L324.80-8.77Q324.80-13.89 328.13-16.54L328.13-16.54L328.13-16.54Q331.46-19.20 337.15-19.20L337.15-19.20L343.10-19.20L343.10-19.20Q343.36-19.20 343.36-19.46L343.36-19.46L343.36-21.89L343.36-21.89Q343.36-25.15 341.70-27.04L341.70-27.04L341.70-27.04Q340.03-28.93 336.90-28.93L336.90-28.93L336.90-28.93Q334.40-28.93 332.70-27.68L332.70-27.68L332.70-27.68Q331.01-26.43 330.75-24.38L330.75-24.38L330.75-24.38Q330.69-23.81 330.05-23.81L330.05-23.81L326.53-24L326.53-24Q326.21-24 326.05-24.19L326.05-24.19L326.05-24.19Q325.89-24.38 325.95-24.64L325.95-24.64L325.95-24.64Q326.40-28.35 329.41-30.62L329.41-30.62L329.41-30.62Q332.42-32.90 336.90-32.90L336.90-32.90ZM335.49-3.46L335.49-3.46Q338.69-3.46 341.02-5.22L341.02-5.22L341.02-5.22Q343.36-6.98 343.36-10.11L343.36-10.11L343.36-15.30L343.36-15.30Q343.36-15.55 343.10-15.55L343.10-15.55L337.41-15.55L337.41-15.55Q333.82-15.55 331.62-13.86L331.62-13.86L331.62-13.86Q329.41-12.16 329.41-9.02L329.41-9.02L329.41-9.02Q329.41-6.21 331.10-4.83L331.10-4.83L331.10-4.83Q332.80-3.46 335.49-3.46L335.49-3.46ZM368.13-32.70L368.13-32.70Q369.98-32.70 371.39-31.94L371.39-31.94L371.39-31.94Q371.84-31.74 371.71-31.17L371.71-31.17L370.94-27.90L370.94-27.90Q370.75-27.33 370.11-27.52L370.11-27.52L370.11-27.52Q369.34-27.90 368.06-27.90L368.06-27.90L368.06-27.90Q367.42-27.90 367.10-27.84L367.10-27.84L367.10-27.84Q364.29-27.71 362.46-25.41L362.46-25.41L362.46-25.41Q360.64-23.10 360.64-19.71L360.64-19.71L360.64-0.64L360.64-0.64Q360.64 0 360.00 0L360.00 0L356.74 0L356.74 0Q356.10 0 356.10-0.64L356.10-0.64L356.10-31.74L356.10-31.74Q356.10-32.38 356.74-32.38L356.74-32.38L360.00-32.38L360.00-32.38Q360.64-32.38 360.64-31.74L360.64-31.74L360.64-27.71L360.64-27.71Q360.64-27.52 360.74-27.52L360.74-27.52L360.74-27.52Q360.83-27.52 360.90-27.65L360.90-27.65L360.90-27.65Q361.98-30.02 363.81-31.36L363.81-31.36L363.81-31.36Q365.63-32.70 368.13-32.70L368.13-32.70ZM377.73 0L377.73 0Q377.09 0 377.09-0.64L377.09-0.64L377.09-44.16L377.09-44.16Q377.09-44.80 377.73-44.80L377.73-44.80L380.99-44.80L380.99-44.80Q381.63-44.80 381.63-44.16L381.63-44.16L381.63-18.18L381.63-18.18Q381.63-18.05 381.76-17.98L381.76-17.98L381.76-17.98Q381.89-17.92 381.95-18.05L381.95-18.05L393.54-32L393.54-32Q393.86-32.38 394.30-32.38L394.30-32.38L397.95-32.38L397.95-32.38Q398.34-32.38 398.46-32.16L398.46-32.16L398.46-32.16Q398.59-31.94 398.34-31.62L398.34-31.62L391.04-22.53L391.04-22.53Q390.91-22.34 390.98-22.21L390.98-22.21L399.62-0.77L399.68-0.51L399.68-0.51Q399.68 0 399.10 0L399.10 0L395.71 0L395.71 0Q395.20 0 395.01-0.51L395.01-0.51L388.03-18.82L388.03-18.82Q387.97-18.94 387.84-18.98L387.84-18.98L387.84-18.98Q387.71-19.01 387.65-18.88L387.65-18.88L381.76-11.78L381.76-11.78Q381.63-11.52 381.63-11.46L381.63-11.46L381.63-0.64L381.63-0.64Q381.63 0 380.99 0L380.99 0L377.73 0ZM415.68 0.32L415.68 0.32Q410.75 0.32 407.74-2.05L407.74-2.05L407.74-2.05Q404.74-4.42 404.74-8.13L404.74-8.13L404.74-8.70L404.74-8.70Q404.74-9.34 405.38-9.34L405.38-9.34L408.45-9.34L408.45-9.34Q409.09-9.34 409.09-8.83L409.09-8.83L409.09-8.26L409.09-8.26Q409.09-6.21 410.94-4.70L410.94-4.70L410.94-4.70Q412.80-3.20 415.68-3.20L415.68-3.20L415.68-3.20Q418.50-3.20 420.19-4.67L420.19-4.67L420.19-4.67Q421.89-6.14 421.89-8.38L421.89-8.38L421.89-8.38Q421.89-9.98 420.93-11.07L420.93-11.07L420.93-11.07Q419.97-12.16 418.56-12.80L418.56-12.80L418.56-12.80Q417.15-13.44 414.66-14.27L414.66-14.27L414.66-14.27Q411.65-15.30 409.66-16.32L409.66-16.32L409.66-16.32Q407.68-17.34 406.30-19.17L406.30-19.17L406.30-19.17Q404.93-20.99 404.93-23.81L404.93-23.81L404.93-23.81Q404.93-27.90 407.84-30.30L407.84-30.30L407.84-30.30Q410.75-32.70 415.49-32.70L415.49-32.70L415.49-32.70Q420.35-32.70 423.26-30.21L423.26-30.21L423.26-30.21Q426.18-27.71 426.18-23.81L426.18-23.81L426.18-23.68L426.18-23.68Q426.18-23.04 425.54-23.04L425.54-23.04L422.53-23.04L422.53-23.04Q421.89-23.04 421.89-23.49L421.89-23.49L421.89-23.94L421.89-23.94Q421.89-26.11 420.13-27.55L420.13-27.55L420.13-27.55Q418.37-28.99 415.49-28.99L415.49-28.99L415.49-28.99Q412.67-28.99 411.01-27.62L411.01-27.62L411.01-27.62Q409.34-26.24 409.34-24.06L409.34-24.06L409.34-24.06Q409.34-21.82 411.04-20.67L411.04-20.67L411.04-20.67Q412.74-19.52 416.38-18.24L416.38-18.24L416.38-18.24Q419.46-17.22 421.50-16.19L421.50-16.19L421.50-16.19Q423.55-15.17 424.99-13.34L424.99-13.34L424.99-13.34Q426.43-11.52 426.43-8.64L426.43-8.64L426.43-8.64Q426.43-4.54 423.52-2.11L423.52-2.11L423.52-2.11Q420.61 0.32 415.68 0.32L415.68 0.32Z" fill="#6576ff"></path></g></g><style>text {
  font-size: 64px;
  font-family: Arial Black;
  dominant-baseline: central;
  text-anchor: middle;
}</style></svg>